<svg width="16.000000" height="16.000000" viewBox="0 0 16 16" fill="none" xmlns="http://www.w3.org/2000/svg" xmlns:xlink="http://www.w3.org/1999/xlink">
	<desc>
			Created with Pixso.
	</desc>
	<defs>
		<clipPath id="clip2_37">
			<rect id="Предыдущий шаг" width="16.000000" height="16.000000" fill="white" fill-opacity="0"/>
		</clipPath>
	</defs>
	<g clip-path="url(#clip2_37)">
		<path id="path" d="M14.66 13.61C13.03 11.62 11.58 10.49 10.32 10.22C9.05 9.95 7.85 9.91 6.7 10.1L6.7 13.66L1.33 7.84L6.7 2.33L6.7 5.72C8.82 5.73 10.62 6.49 12.1 8C13.58 9.5 14.43 11.37 14.66 13.61Z" fill="#000000" fill-opacity="0" fill-rule="evenodd"/>
		<path id="path" d="M10.32 10.22C9.05 9.95 7.85 9.91 6.7 10.1L6.7 13.66L1.33 7.84L6.7 2.33L6.7 5.72C8.82 5.73 10.62 6.49 12.1 8C13.58 9.5 14.43 11.37 14.66 13.61C13.03 11.62 11.58 10.49 10.32 10.22Z" stroke="#FFFFFF" stroke-opacity="1.000000" stroke-width="1.000000" stroke-linejoin="round"/>
	</g>
</svg>
