<svg width="14.333313" height="14.357910" viewBox="0 0 14.3333 14.3579" fill="none" xmlns="http://www.w3.org/2000/svg" xmlns:xlink="http://www.w3.org/1999/xlink">
	<desc>
			Created with Pixso.
	</desc>
	<defs/>
	<rect id="Компоненты 2" width="13.333313" height="13.333374" transform="translate(0.500000 0.524536)" fill="#FFFFFF" fill-opacity="0"/>
	<path id="path" d="M5.16 3.18L9.76 0.52L11.29 3.18L5.16 3.18Z" fill="#000000" fill-opacity="0" fill-rule="evenodd"/>
	<path id="path" d="M9.76 0.52L11.29 3.18L5.16 3.18L9.76 0.52Z" stroke="#FFFFFF" stroke-opacity="1.000000" stroke-width="1.000000" stroke-linejoin="round"/>
	<path id="path" d="M0.5 3.85C0.5 3.48 0.79 3.19 1.16 3.19L13.16 3.19C13.53 3.19 13.83 3.48 13.83 3.85L13.83 13.19C13.83 13.55 13.53 13.85 13.16 13.85L1.16 13.85C0.79 13.85 0.5 13.55 0.5 13.19L0.5 3.85Z" fill="#000000" fill-opacity="0" fill-rule="nonzero"/>
	<path id="path" d="M1.16 3.19L13.16 3.19C13.53 3.19 13.83 3.48 13.83 3.85L13.83 13.19C13.83 13.55 13.53 13.85 13.16 13.85L1.16 13.85C0.79 13.85 0.5 13.55 0.5 13.19L0.5 3.85C0.5 3.48 0.79 3.19 1.16 3.19Z" stroke="#FFFFFF" stroke-opacity="1.000000" stroke-width="1.000000" stroke-linejoin="round"/>
	<path id="path" d="M10.91 10.19L13.83 10.19L13.83 6.85L10.91 6.85C9.95 6.85 9.16 7.6 9.16 8.52C9.16 9.44 9.95 10.19 10.91 10.19Z" fill="#000000" fill-opacity="0" fill-rule="nonzero"/>
	<path id="path" d="M13.83 10.19L13.83 6.85L10.91 6.85C9.95 6.85 9.16 7.6 9.16 8.52C9.16 9.44 9.95 10.19 10.91 10.19L13.83 10.19Z" stroke="#FFFFFF" stroke-opacity="1.000000" stroke-width="1.000000" stroke-linejoin="round"/>
	<path id="path" d="M13.35 4.71L13.33 4.69C13.33 4.41 13.55 4.19 13.83 4.19C14.11 4.19 14.33 4.41 14.33 4.69L14.31 4.71L13.35 4.71ZM14.31 12.67L14.33 12.69C14.33 12.97 14.11 13.19 13.83 13.19C13.55 13.19 13.33 12.97 13.33 12.69L13.35 12.67L14.31 12.67Z" fill="#000000" fill-opacity="0" fill-rule="nonzero"/>
	<path id="path" d="M13.83 4.69L13.83 12.69" stroke="#FFFFFF" stroke-opacity="1.000000" stroke-width="1.000000" stroke-linecap="round"/>
</svg>
