<svg width="14.000000" height="14.000000" viewBox="0 0 14 14" fill="none" xmlns="http://www.w3.org/2000/svg" xmlns:xlink="http://www.w3.org/1999/xlink">
	<desc>
			Created with Pixso.
	</desc>
	<defs>
		<clipPath id="clip2_11">
			<rect id="Кошелек" width="14.000000" height="14.000000" fill="white" fill-opacity="0"/>
		</clipPath>
	</defs>
	<g clip-path="url(#clip2_11)">
		<rect id="rect" x="1.458336" y="3.791672" rx="2.000000" width="11.083333" height="7.583333" fill="#000000" fill-opacity="0"/>
		<rect id="rect" x="1.458336" y="3.791672" rx="2.000000" width="11.083333" height="7.583333" stroke="#FFFFFF" stroke-opacity="1.000000" stroke-width="0.875000" stroke-linejoin="round"/>
		<rect id="rect" x="7.291672" y="5.833328" width="5.250000" height="3.208333" fill="#000000" fill-opacity="0"/>
		<rect id="rect" x="7.291672" y="5.833328" width="5.250000" height="3.208333" stroke="#FFFFFF" stroke-opacity="1.000000" stroke-width="0.875000" stroke-linejoin="round"/>
		<path id="path" d="M12.12 5.27L12.1 5.25C12.1 5 12.29 4.81 12.54 4.81C12.78 4.81 12.97 5 12.97 5.25L12.95 5.27L12.12 5.27ZM12.95 9.6L12.97 9.62C12.97 9.87 12.78 10.06 12.54 10.06C12.29 10.06 12.1 9.87 12.1 9.62L12.12 9.6L12.95 9.6Z" fill="#000000" fill-opacity="0" fill-rule="nonzero"/>
		<path id="path" d="M12.54 5.25L12.54 9.62" stroke="#FFFFFF" stroke-opacity="1.000000" stroke-width="0.875000" stroke-linejoin="round" stroke-linecap="round"/>
		<path id="path" d="M9.75 3.77L9.77 3.79C9.77 4.03 9.57 4.22 9.33 4.22C9.08 4.22 8.89 4.03 8.89 3.79L8.91 3.77L9.75 3.77ZM2.75 3.77L2.77 3.79C2.77 4.03 2.57 4.22 2.33 4.22C2.08 4.22 1.89 4.03 1.89 3.79L1.91 3.77L2.75 3.77Z" fill="#000000" fill-opacity="0" fill-rule="nonzero"/>
		<path id="path" d="M9.33 3.79C9.33 2.33 8.31 2.04 7.87 2.04C6.9 2.04 4.69 2.04 3.64 2.04C2.59 2.04 2.33 2.87 2.33 3.29L2.33 3.79" stroke="#FFFFFF" stroke-opacity="1.000000" stroke-width="0.875000" stroke-linejoin="round" stroke-linecap="round"/>
		<circle id="circle" cx="9.770828" cy="7.437500" r="0.437500" fill="#FFFFFF" fill-opacity="1.000000"/>
	</g>
</svg>
